<?xml version="1.0" encoding="UTF-8"?><svg id="Layer_1" xmlns="http://www.w3.org/2000/svg" viewBox="0 0 1112 303"><path d="M178.62,40c14.44,9.66,21.66,25.22,21.66,46.68s-6.98,38.29-20.92,48.14c-13.95,9.85-36.05,14.78-66.29,14.78H40.49c0,5.46,1.76,10,5.27,13.61,3.51,3.61,8.88,7.86,16.1,12.73,5.85,3.91,10.58,7.32,14.19,10.24,3.61,2.93,6.68,6.69,9.22,11.27,2.53,4.59,3.8,10,3.8,16.24s-1.56,13.95-4.68,22.53H6.83v-1.76c2.73-.39,4.98-1.27,6.73-2.63V31.36c-.78-.39-1.9-1.12-3.37-2.19-1.46-1.07-2.59-1.71-3.37-1.9v-1.76H113.07c29.27,0,51.11,4.83,65.56,14.49Zm-77.26,97.89c8.39,0,14.73-4.49,19.02-13.46,4.29-8.97,6.44-19.9,6.44-32.78,0-14.05-2.34-26.63-7.02-37.75-4.68-11.12-10.83-16.68-18.44-16.68h-16.97c6.44,10.34,9.66,19.51,9.66,27.51s-2.3,14.1-6.88,19.46c-4.59,5.37-11.46,11.66-20.63,18.88-8.59,6.44-15.07,12.2-19.46,17.27-4.39,5.08-6.58,10.93-6.58,17.56h60.87Z"/><path d="M370.6,174.47c0,11.12-3.51,21.66-10.54,31.61-7.02,9.95-16.68,17.95-28.97,24-12.29,6.05-25.85,9.07-40.68,9.07-18.93,0-34.68-4-47.26-12-12.58-8-21.8-18.48-27.66-31.46-5.85-12.97-8.78-27.26-8.78-42.87s3.12-31.51,9.36-45.95c6.24-14.44,15.9-26.24,28.97-35.41,13.07-9.17,29.36-13.75,48.87-13.75,13.85,0,25.65,1.61,35.41,4.83,9.75,3.22,17.12,7.51,22.1,12.88,4.98,5.37,7.46,11.27,7.46,17.71,0,14.83-7.27,27.22-21.8,37.17-14.54,9.95-33.32,16.78-56.34,20.49,4.87,9.95,10,17.51,15.36,22.68,5.36,5.17,12.92,7.76,22.68,7.76s18.83-2.49,26.63-7.46c7.8-4.98,13.85-12.04,18.15-21.22,4.68,6.44,7.02,13.75,7.02,21.95Zm-76.97-52.24c5.07-7.12,7.61-14.97,7.61-23.56,0-7.61-2.15-13.95-6.44-19.02-4.29-5.07-9.66-7.61-16.1-7.61-4.88,0-8.49,2.3-10.83,6.88-2.34,4.59-3.51,10.68-3.51,18.29,0,7.02,.92,14.49,2.78,22.39,1.85,7.9,4.34,14.88,7.46,20.92,7.61-5.07,13.95-11.17,19.02-18.29Z"/><path d="M550.88,201.11c0,9.76,.39,17.12,1.17,22.1,.78,4.98,2.73,9.32,5.85,13.02h-60.58c-3.32-1.17-5.95-3.41-7.9-6.73-1.95-3.32-3.12-7.32-3.51-12-4.1,6.83-9.61,12.15-16.53,15.95-6.93,3.8-14.98,5.71-24.14,5.71-13.66,0-25.66-2.68-36-8.05-10.34-5.36-18.25-12.34-23.71-20.92-5.46-8.58-8.19-17.36-8.19-26.34,0-8.39,2.63-15.8,7.9-22.24,5.27-6.44,11.61-11.8,19.02-16.1,7.41-4.29,17.36-9.36,29.85-15.22,10.92-5.07,19.51-9.37,25.75-12.88,6.24-3.51,11.51-7.71,15.8-12.58,4.29-4.87,6.44-10.34,6.44-16.39,0-3.9-.88-7.65-2.63-11.27-1.76-3.61-4.59-5.41-8.49-5.41-2.15,0-4.15,1.02-6,3.07-1.86,2.05-4.54,5.71-8.05,10.97-4.1,6.25-7.86,11.41-11.27,15.51-3.42,4.1-7.81,7.71-13.17,10.83-5.37,3.12-11.66,4.68-18.88,4.68-9.76,0-17.02-2.58-21.8-7.76-4.78-5.17-6.88-11.36-6.29-18.58,.59-5.66,3.95-10.97,10.1-15.95,6.15-4.98,14.97-9.02,26.49-12.15,11.51-3.12,24.97-4.68,40.39-4.68,19.12,0,35.36,2.25,48.73,6.73,13.36,4.49,23.31,10.1,29.85,16.83,6.53,6.73,9.8,13.51,9.8,20.34v99.5Zm-67.6-83.11c-10.93,9.95-20.1,20.92-27.51,32.92-7.42,12-11.12,22.78-11.12,32.34s1.56,17.22,4.68,23.56c3.12,6.34,8.49,9.51,16.1,9.51,7.02,0,11.75-1.85,14.19-5.56,2.44-3.7,3.66-9.75,3.66-18.15V117.99Z"/><path d="M729.11,174.47c0,11.12-3.51,21.66-10.54,31.61-7.02,9.95-16.68,17.95-28.97,24-12.29,6.05-25.85,9.07-40.68,9.07-18.93,0-34.68-4-47.26-12-12.58-8-21.8-18.48-27.66-31.46-5.85-12.97-8.78-27.26-8.78-42.87s3.12-31.51,9.36-45.95c6.24-14.44,15.9-26.24,28.97-35.41,13.07-9.17,29.36-13.75,48.87-13.75s34.92,3.17,45.07,9.51c10.14,6.34,16.78,14.49,19.9,24.44,1.17,3.51,1.76,7.12,1.76,10.83,0,7.81-2.3,14.39-6.88,19.75-4.59,5.37-10.88,8.05-18.88,8.05-5.08,0-10.44-1.27-16.1-3.8-7.02-3.12-12.73-7.71-17.12-13.75-4.39-6.04-8.73-13.65-13.02-22.83-2.93-6.24-5.41-10.78-7.46-13.61-2.05-2.83-4.34-4.24-6.88-4.24-6.25,0-9.37,8.49-9.37,25.46,0,11.9,1.85,24.34,5.56,37.31,3.7,12.98,9.31,23.95,16.83,32.92,7.51,8.98,16.63,13.46,27.36,13.46,12.29,0,22.34-2.24,30.14-6.73,7.8-4.49,14.34-12.29,19.61-23.41,4.1,6.64,6.15,14.44,6.15,23.41Z"/><path d="M810.17,89.6c7.41-10.34,16.34-18.24,26.78-23.71,10.44-5.46,21.22-8.19,32.34-8.19,10.34,0,19.9,2.54,28.68,7.61,8.78,5.08,15.85,12.63,21.22,22.68,5.36,10.05,8.05,22.29,8.05,36.73v97.45c0,3.12,.15,5.71,.44,7.76,.29,2.05,1.12,4.15,2.49,6.29h-73.75c1.36-2.14,2.19-4.24,2.49-6.29,.29-2.05,.44-4.63,.44-7.76v-87.21c0-10.54-1.12-19.61-3.37-27.22-2.25-7.61-5.17-13.36-8.78-17.27-3.61-3.9-7.46-5.85-11.56-5.85s-8.39,2.15-12.29,6.44c-3.91,4.29-7.07,10.78-9.51,19.46-2.44,8.68-3.66,19.07-3.66,31.17v80.48c0,3.12,.15,5.71,.44,7.76,.29,2.05,1.12,4.15,2.49,6.29h-73.16c1.36-2.14,2.19-4.24,2.49-6.29,.29-2.05,.44-4.63,.44-7.76V25.51c7.61-4.1,16.19-8,25.75-11.71,9.56-3.7,17.95-5.56,25.17-5.56,10.92,0,16.39,4.98,16.39,14.93V89.6Z"/><path d="M987.22,252.61c2.34,0,5.46,.97,9.37,2.93,3.9,1.95,6.92,2.93,9.07,2.93,2.93,0,5.75-1.66,8.49-4.98,2.73-3.32,5.56-9.07,8.49-17.27h-24.88c-4.68,0-8.54-1.07-11.56-3.22-3.03-2.14-5.41-6.04-7.17-11.71l-45.36-160.67h70.82l38.63,135.5c4.48-10.34,6.73-20.68,6.73-31.02,0-8.39-1.12-16.24-3.37-23.56-2.25-7.32-5.61-16.24-10.1-26.78-2.93-6.83-5.12-12.39-6.58-16.68-1.46-4.29-2.2-8.29-2.2-12,0-1.95,.29-3.8,.88-5.56,2.34-8.19,7.65-13.65,15.95-16.39,8.29-2.73,19.17-4.1,32.63-4.1l14.34,.29c3.12,.2,7.71,.29,13.76,.29l-50.04,174.72c-4.68,16.39-11.37,30.39-20.05,42-8.68,11.61-18.29,17.41-28.83,17.41s-18.39-2.39-24.73-7.17c-6.34-4.78-9.51-10.29-9.51-16.54,0-4.1,1.27-7.81,3.8-11.12,3.51-4.88,7.32-7.32,11.41-7.32Z"/></svg>