<?xml version="1.0" encoding="UTF-8"?><svg id="Layer_1" xmlns="http://www.w3.org/2000/svg" viewBox="0 0 1505 303"><defs><style>.cls-1{fill:#49c5f6;}.cls-2{fill:#f2c20e;}.cls-3{fill:#f66949;}.cls-4{fill:#ffbfb5;}</style></defs><g><path d="M533.18,35.07c15.14,10.13,22.71,26.45,22.71,48.96s-7.32,40.16-21.95,50.49c-14.63,10.34-37.81,15.5-69.53,15.5h-76.12c0,5.73,1.84,10.49,5.52,14.27,3.68,3.79,9.31,8.24,16.88,13.35,6.14,4.1,11.1,7.67,14.89,10.74,3.78,3.07,7.01,7.01,9.67,11.82,2.66,4.81,3.99,10.49,3.99,17.04s-1.64,14.63-4.91,23.64h-81.34v-1.84c2.86-.41,5.22-1.33,7.06-2.76V26.02c-.82-.41-2-1.17-3.53-2.3-1.53-1.12-2.71-1.79-3.53-2v-1.84h111.42c30.7,0,53.61,5.06,68.76,15.19Zm-81.04,102.68c8.8,0,15.45-4.71,19.95-14.12,4.5-9.41,6.75-20.87,6.75-34.38,0-14.73-2.46-27.93-7.37-39.6-4.91-11.66-11.36-17.5-19.34-17.5h-17.8c6.75,10.85,10.13,20.47,10.13,28.85s-2.41,14.79-7.21,20.41c-4.81,5.63-12.02,12.23-21.64,19.8-9.01,6.75-15.81,12.79-20.41,18.11-4.6,5.32-6.91,11.46-6.91,18.42h63.85Z"/><path d="M734.55,176.12c0,11.66-3.68,22.71-11.05,33.15-7.37,10.44-17.5,18.83-30.39,25.17-12.89,6.35-27.12,9.52-42.67,9.52-19.85,0-36.37-4.19-49.57-12.59-13.2-8.39-22.87-19.39-29.01-33-6.14-13.61-9.21-28.59-9.21-44.97s3.27-33.05,9.82-48.19c6.55-15.14,16.68-27.52,30.39-37.14,13.71-9.62,30.8-14.43,51.26-14.43,14.53,0,26.91,1.69,37.14,5.07,10.23,3.38,17.96,7.88,23.18,13.51,5.22,5.63,7.83,11.82,7.83,18.57,0,15.55-7.63,28.55-22.87,38.98-15.25,10.44-34.94,17.6-59.09,21.49,5.11,10.44,10.48,18.37,16.11,23.79,5.63,5.42,13.55,8.13,23.79,8.13s19.75-2.61,27.93-7.83c8.18-5.22,14.53-12.63,19.03-22.25,4.91,6.75,7.37,14.43,7.37,23.02Zm-80.73-54.79c5.32-7.47,7.98-15.7,7.98-24.71,0-7.98-2.25-14.63-6.75-19.95-4.5-5.32-10.13-7.98-16.88-7.98-5.12,0-8.9,2.41-11.36,7.21-2.46,4.81-3.68,11.2-3.68,19.18,0,7.37,.97,15.19,2.92,23.48,1.94,8.29,4.55,15.61,7.83,21.95,7.98-5.32,14.63-11.71,19.95-19.18Z"/><path d="M923.63,204.05c0,10.24,.41,17.96,1.23,23.17,.82,5.22,2.86,9.77,6.14,13.66h-63.54c-3.48-1.23-6.24-3.58-8.29-7.06-2.05-3.48-3.28-7.67-3.68-12.59-4.3,7.17-10.08,12.74-17.34,16.73-7.27,3.99-15.71,5.99-25.32,5.99-14.33,0-26.91-2.82-37.76-8.44-10.85-5.63-19.14-12.94-24.86-21.95-5.73-9-8.59-18.21-8.59-27.63,0-8.8,2.76-16.58,8.29-23.33,5.52-6.75,12.17-12.38,19.95-16.88,7.77-4.5,18.21-9.82,31.31-15.96,11.46-5.32,20.46-9.82,27.01-13.51,6.55-3.68,12.07-8.08,16.58-13.2,4.5-5.11,6.75-10.84,6.75-17.19,0-4.09-.92-8.03-2.76-11.82-1.84-3.78-4.81-5.68-8.9-5.68-2.25,0-4.35,1.07-6.29,3.22-1.95,2.15-4.76,5.99-8.44,11.51-4.3,6.55-8.24,11.97-11.82,16.27-3.58,4.3-8.19,8.09-13.81,11.36-5.63,3.28-12.23,4.91-19.8,4.91-10.24,0-17.86-2.71-22.87-8.13-5.02-5.42-7.21-11.92-6.6-19.49,.61-5.93,4.14-11.51,10.59-16.73,6.45-5.22,15.7-9.46,27.78-12.74,12.07-3.27,26.19-4.91,42.36-4.91,20.05,0,37.09,2.36,51.11,7.06,14.01,4.71,24.45,10.59,31.31,17.65,6.85,7.06,10.28,14.17,10.28,21.33v104.37Zm-70.91-87.18c-11.46,10.44-21.08,21.95-28.85,34.53-7.78,12.58-11.66,23.89-11.66,33.92s1.64,18.06,4.91,24.71c3.27,6.65,8.9,9.98,16.88,9.98,7.37,0,12.33-1.94,14.89-5.83,2.56-3.89,3.84-10.23,3.84-19.03V116.88Z"/><path d="M1110.56,176.12c0,11.66-3.68,22.71-11.05,33.15-7.37,10.44-17.5,18.83-30.39,25.17-12.89,6.35-27.12,9.52-42.67,9.52-19.85,0-36.37-4.19-49.57-12.59-13.2-8.39-22.87-19.39-29.01-33-6.14-13.61-9.21-28.59-9.21-44.97s3.27-33.05,9.82-48.19c6.55-15.14,16.68-27.52,30.39-37.14,13.71-9.62,30.8-14.43,51.26-14.43s36.63,3.33,47.27,9.98c10.64,6.65,17.6,15.19,20.87,25.63,1.23,3.68,1.84,7.47,1.84,11.36,0,8.19-2.41,15.09-7.21,20.72-4.81,5.63-11.41,8.44-19.8,8.44-5.32,0-10.95-1.33-16.88-3.99-7.37-3.27-13.35-8.08-17.96-14.43-4.6-6.34-9.16-14.32-13.66-23.94-3.07-6.55-5.68-11.3-7.83-14.27-2.15-2.96-4.56-4.45-7.21-4.45-6.55,0-9.82,8.9-9.82,26.71,0,12.48,1.94,25.53,5.83,39.14,3.89,13.61,9.77,25.12,17.65,34.53,7.88,9.41,17.44,14.12,28.7,14.12,12.89,0,23.43-2.35,31.62-7.06,8.18-4.71,15.04-12.89,20.57-24.56,4.3,6.96,6.45,15.15,6.45,24.56Z"/><path d="M1195.59,87.1c7.77-10.84,17.14-19.13,28.09-24.86,10.94-5.73,22.25-8.6,33.92-8.6,10.84,0,20.87,2.66,30.08,7.98,9.21,5.32,16.62,13.25,22.25,23.79,5.63,10.54,8.44,23.38,8.44,38.52v102.22c0,3.28,.15,5.99,.46,8.13,.31,2.15,1.18,4.35,2.61,6.6h-77.35c1.43-2.25,2.3-4.45,2.61-6.6,.31-2.15,.46-4.86,.46-8.13v-91.47c0-11.05-1.18-20.57-3.53-28.55-2.35-7.98-5.42-14.01-9.21-18.11-3.79-4.09-7.83-6.14-12.12-6.14s-8.8,2.25-12.89,6.75c-4.1,4.5-7.42,11.31-9.98,20.41-2.56,9.11-3.84,20-3.84,32.69v84.41c0,3.28,.15,5.99,.46,8.13,.31,2.15,1.18,4.35,2.61,6.6h-76.74c1.43-2.25,2.3-4.45,2.61-6.6,.31-2.15,.46-4.86,.46-8.13V19.88c7.98-4.3,16.98-8.39,27.01-12.28,10.02-3.88,18.83-5.83,26.4-5.83,11.46,0,17.19,5.22,17.19,15.65V87.1Z"/><path d="M1381.3,258.07c2.46,0,5.73,1.02,9.82,3.07,4.09,2.04,7.26,3.07,9.52,3.07,3.07,0,6.03-1.74,8.9-5.22,2.86-3.48,5.83-9.52,8.9-18.11h-26.09c-4.91,0-8.95-1.12-12.12-3.38-3.18-2.25-5.68-6.34-7.52-12.28l-47.58-168.52h74.28l40.52,142.12c4.7-10.84,7.06-21.69,7.06-32.54,0-8.8-1.18-17.04-3.53-24.71-2.36-7.67-5.89-17.04-10.59-28.09-3.07-7.16-5.37-12.99-6.91-17.5-1.53-4.5-2.3-8.7-2.3-12.59,0-2.04,.31-3.99,.92-5.83,2.45-8.6,8.03-14.32,16.73-17.19,8.69-2.86,20.1-4.3,34.23-4.3l15.04,.31c3.27,.21,8.08,.31,14.43,.31l-52.49,183.25c-4.91,17.19-11.92,31.87-21.03,44.05-9.11,12.17-19.18,18.26-30.23,18.26s-19.29-2.51-25.94-7.52c-6.65-5.02-9.98-10.8-9.98-17.34,0-4.3,1.33-8.19,3.99-11.66,3.68-5.12,7.67-7.67,11.97-7.67Z"/></g><g><circle class="cls-2" cx="149" cy="151.5" r="149"/><g><path class="cls-3" d="M185.14,97.38c-11.44,0-22.22,3.59-31.16,10.39-13.14,9.94-20.66,25.04-20.66,41.42,0,4.54-3.68,8.21-8.21,8.21s-8.21-3.67-8.21-8.21c0-17.62,6.69-34.03,18.51-46.6-6.94-3.37-14.55-5.22-22.53-5.22-28.62,0-51.9,23.24-51.9,51.81,0,72.06,74.18,96.67,87.71,100.55,13.6-3.87,88.35-28.47,88.35-100.55,0-28.57-23.28-51.81-51.89-51.81Zm35.39,60.03c-4.54,0-8.21-3.67-8.21-8.21,0-14.99-12.19-27.18-27.18-27.18-4.54,0-8.21-3.67-8.21-8.21s3.67-8.21,8.21-8.21c24.04,0,43.6,19.56,43.6,43.6,0,4.54-3.67,8.21-8.21,8.21Z"/><path class="cls-1" d="M155.45,80.92c7.3,.38,14.5-2.42,19.84-7.8,5.36-5.36,8.14-12.66,7.8-20.13-7.27-.26-14.54,2.41-19.88,7.8,0,0,0,.02-.02,.02-4.95,4.95-7.78,11.78-7.78,18.75,0,.44,.01,.89,.04,1.36Z"/><path class="cls-1" d="M119.03,73.12c5.33,5.38,12.6,8.23,19.91,7.79,.03-.46,.04-.91,.04-1.35,0-6.97-2.83-13.8-7.78-18.75l-.02-.02c-5.33-5.38-12.53-8.2-19.92-7.79-.38,7.35,2.39,14.7,7.77,20.12Z"/><path d="M190.02,81.2c7.84-9.76,11.12-22.54,8.73-35.24-.94-4.35-4.39-7.73-8.81-8.62-13.92-2.77-28.28,1.68-38.39,11.88-1.63,1.63-3.01,3.46-4.35,5.33-1.34-1.87-2.73-3.71-4.37-5.34-10.1-10.18-24.46-14.6-38.6-11.84-4.31,.94-7.68,4.32-8.62,8.76-2.46,12.58,.91,25.5,8.97,35.38-33.78,4.1-60.04,32.86-60.04,67.69,0,90.53,101.12,116.77,102.15,117.03,1.3,.32,2.66,.32,3.96,0,1.03-.26,102.81-26.49,102.81-117.03,0-35.98-28.05-65.48-63.44-67.99Zm-41.34,168.54c-13.54-3.88-87.71-28.49-87.71-100.55,0-28.57,23.28-51.81,51.9-51.81,7.98,0,15.6,1.85,22.53,5.22-11.82,12.56-18.51,28.98-18.51,46.6,0,4.54,3.68,8.21,8.21,8.21s8.21-3.67,8.21-8.21c0-16.38,7.52-31.48,20.66-41.42,8.94-6.8,19.72-10.39,31.16-10.39,28.61,0,51.89,23.24,51.89,51.81,0,72.08-74.75,96.68-88.35,100.55Zm-17.48-188.93c4.94,4.95,7.78,11.78,7.78,18.75,0,.44-.01,.89-.04,1.35-7.31,.44-14.58-2.41-19.91-7.79-5.38-5.42-8.15-12.78-7.77-20.12,7.39-.42,14.59,2.41,19.92,7.79l.02,.02Zm31.99,0s0-.02,.02-.02c5.34-5.38,12.61-8.06,19.88-7.8,.34,7.47-2.45,14.77-7.8,20.13-5.33,5.37-12.53,8.18-19.84,7.8-.03-.47-.04-.91-.04-1.36,0-6.97,2.83-13.8,7.78-18.75Z"/><path class="cls-4" d="M185.14,105.59c-4.54,0-8.21,3.67-8.21,8.21s3.67,8.21,8.21,8.21c14.99,0,27.18,12.19,27.18,27.18,0,4.54,3.67,8.21,8.21,8.21s8.21-3.67,8.21-8.21c0-24.04-19.56-43.6-43.6-43.6Z"/></g></g></svg>